<?xml version="1.0" encoding="utf-8"?>
<!-- Generator: Adobe Illustrator 14.0.0, SVG Export Plug-In . SVG Version: 6.00 Build 43363)  -->
<!DOCTYPE svg PUBLIC "-//W3C//DTD SVG 1.0//EN" "http://www.w3.org/TR/2001/REC-SVG-20010904/DTD/svg10.dtd">
<svg version="1.0" id="Layer_1" xmlns="http://www.w3.org/2000/svg" xmlns:xlink="http://www.w3.org/1999/xlink" x="0px" y="0px"
	 width="218.749px" height="63.839px" viewBox="0 0 218.749 63.839" enable-background="new 0 0 218.749 63.839"
	 xml:space="preserve">
<g>
	<path fill="#C1D82F" d="M19.071,6.761H9.417c-1.072,0-1.688,0.573-1.688,1.572v3.247c0,0.512,0.217,1.357,1.673,1.383
		c0.057,0.001,9.669,0,9.669,0c3.455,0,3.722,1.438,3.722,5.886v7.517c0,2.752-5.591,8.409-8.309,8.409h-4.56
		c-2.801,0-3.746-0.918-3.746-3.639L6.164,9.434V1.431C6.164,0.655,5.509,0,4.734,0H1.428C0.654,0,0,0.656,0,1.433v29.706
		c0,6.128,3.728,9.788,9.925,9.788h4.56c6.092,0,14.484-8.434,14.484-14.554v-7.52C28.968,12.874,27.792,6.761,19.071,6.761z"/>
	<path fill="#C1D82F" d="M78.061,6.761H62.753c-1.072,0-1.687,0.573-1.687,1.572v3.247c0,0.513,0.217,1.375,1.673,1.401
		c0.056,0,15.323,0,15.323,0c3.455,0,3.722,1.42,3.722,5.868v7.517c0,2.752-5.591,8.409-8.309,8.409h-4.56
		c-2.801,0-3.747-0.918-3.747-3.639c0-0.003,0-2.37,0-2.37c0.136-1.754,0.303-3.567,3.559-3.567h10.107
		c0.728,0,1.352-0.769,1.352-1.398v-3.357c0-0.67-0.636-1.416-1.548-1.416c-0.001,0-3.854,0.016-9.98,0.016
		c-6.052,0.017-9.476,3.614-9.642,10.127l0.001,1.969c0,6.128,3.7,9.788,9.897,9.788h4.56c6.092,0,14.484-8.434,14.484-14.554v-7.52
		C87.958,12.874,86.782,6.761,78.061,6.761z"/>
	<path fill="#C1D82F" d="M55.766,34.708c-0.058-0.002-15.323,0.017-15.323,0.017c-3.455,0-3.746-1.438-3.746-5.886l0.024-7.516
		c0-2.752,5.591-8.411,8.309-8.411h4.56c2.801,0,3.746,0.918,3.746,3.641c0,0.003,0,2.37,0,2.37
		c-0.135,1.753-0.303,3.567-3.559,3.567l-10.144,0.001c-0.728,0-1.351,0.768-1.351,1.396v3.357c0,0.579,0.551,1.415,1.547,1.415
		c0.001,0,3.891-0.016,10.017-0.016c6.053-0.017,9.477-3.613,9.642-10.126l-0.001-1.97c0-6.128-3.7-9.787-9.897-9.787h-4.56
		c-6.092,0-14.484,8.433-14.484,14.555v7.519c0,5.979,1.175,12.092,9.897,12.092h15.308c1.073,0,1.688-0.572,1.688-1.572v-3.246
		C57.439,35.597,57.222,34.733,55.766,34.708z"/>
	<path fill="#C1D82F" d="M123.182,6.781h-4.562c-6.197,0-9.896,3.69-9.896,9.872l-0.027,29.42c0,0.883,0.436,1.43,1.138,1.43h3.597
		c0.762,0,1.43-0.668,1.43-1.428l0.015-29.422c0-2.733,0.98-3.702,3.744-3.702h4.562c2.708,0,8.301,5.702,8.301,8.474
		c0,0-0.003,8.175,0,8.446c0.02,1.746,0.035,3.254-0.793,4.093c-0.561,0.565-1.516,0.841-2.921,0.841h-9.899
		c-0.775,0-1.432,0.653-1.432,1.428v3.248c0,0.773,0.656,1.428,1.432,1.428h9.899c8.696,0,9.896-5.754,9.896-11.972v-7.514
		C137.664,15.265,129.272,6.781,123.182,6.781z"/>
	<path fill="#C1D82F" d="M106.935,6.746H95.699V1.431C95.699,0.655,95.03,0,94.255,0h-3.306c-0.775,0-1.401,0.656-1.401,1.433
		v25.302c0.168,2.348,1.515,5.234,3.604,7.746c2.348,2.941,6.645,6.215,10.518,6.435c0.02,0.001,0.935,0.005,1.967,0.005
		c1.496-0.127,1.429-0.992,1.489-1.225v-3.529c-0.019-0.912-0.936-1.371-1.55-1.398c-0.001,0-0.003,0-0.006,0
		c-0.388,0-1.435,0.029-1.613,0.034c-2.263-0.255-4.875-2.917-5.624-3.73c-1.462-1.579-2.619-3.58-2.634-4.556V12.984
		c1.963-0.002,10.875-0.014,11.23-0.014c0.628,0,1.314-0.656,1.335-1.276V8.138C108.265,7.712,107.762,6.746,106.935,6.746z"/>
	<path fill="#C1D82F" d="M210.477,6.746H199.24V1.431c0-0.775-0.669-1.431-1.444-1.431h-3.306c-0.774,0-1.4,0.656-1.4,1.433v25.302
		c0.168,2.348,1.515,5.234,3.603,7.746c2.349,2.941,6.646,6.215,10.519,6.435c0.021,0.001,0.935,0.005,1.967,0.005
		c1.177-0.1,1.393-0.916,1.474-1.225l0.012-0.047l0.004-0.064v-3.418c-0.019-0.912-0.936-1.371-1.55-1.398c-0.002,0-0.004,0-0.006,0
		c-0.389,0-1.435,0.029-1.613,0.034c-2.263-0.255-4.875-2.917-5.624-3.73c-1.462-1.579-2.619-3.58-2.634-4.556V12.984
		c1.963-0.002,10.875-0.014,11.23-0.014c0.628,0,1.314-0.656,1.336-1.276V8.138C211.807,7.712,211.304,6.746,210.477,6.746z"/>
	<path fill="#C1D82F" d="M158.297,6.761h-9.243c-6.351,0.048-9.557,3.385-9.803,10.204l0.002,14.175c0,6.128,3.7,9.788,9.897,9.788
		h4.561c6.091,0,14.483-8.434,14.483-14.554v-7.52C168.194,12.874,167.019,6.761,158.297,6.761z M153.711,34.774h-4.561
		c-2.802,0-3.746-0.918-3.746-3.639V16.608c0.05-3.414,1.753-3.528,3.122-3.619l9.771-0.027c3.454,0,3.745,1.438,3.745,5.886
		l-0.023,7.517C162.02,29.117,156.429,34.774,153.711,34.774z"/>
	<g>
		<path fill="#C1D82F" d="M215.504,34.466c-1.795,0-3.243,1.438-3.243,3.224c0,1.806,1.448,3.245,3.243,3.245
			c1.788,0,3.245-1.439,3.245-3.245C218.749,35.903,217.292,34.466,215.504,34.466z M215.504,40.071
			c-1.411,0-2.291-0.925-2.291-2.382c0-1.438,0.88-2.374,2.291-2.374c1.385,0,2.291,0.936,2.291,2.374
			C217.795,39.146,216.889,40.071,215.504,40.071z"/>
		<path fill="#C1D82F" d="M215.746,36.258h-1.496v3.025h0.652v-1.226h0.51l0.693,1.226h0.747l-0.747-1.226
			c0.544-0.043,0.846-0.277,0.846-0.849C216.951,36.478,216.561,36.258,215.746,36.258z M215.755,37.585h-0.853v-0.846h0.698
			c0.3,0,0.748-0.033,0.748,0.389C216.349,37.511,216.105,37.593,215.755,37.585z"/>
	</g>
	<path fill="#C1D82F" d="M191.51,7.892c-0.043-0.52-0.475-1.071-1.324-1.13l-0.013-0.001h-0.014h-5.877
		c-6.091,0-14.525,8.433-14.525,14.555v18.238c0,0.882,0.436,1.43,1.138,1.43h3.806c0.762,0,1.235-0.668,1.235-1.428l0.004-18.233
		c0-2.752,5.625-8.411,8.343-8.411h5.8c0.664,0,1.405-0.518,1.442-1.353C191.525,10.74,191.51,8.448,191.51,7.892z"/>
	<path fill="#C1D82F" d="M188.562,47.772c0,0-1.716-2.018-2.346-2.66l-0.034-0.035l-0.041-0.025
		c-0.253-0.151-0.512-0.229-0.77-0.229c-0.413,0-0.815,0.193-1.196,0.574l-8.235,8.145v-9.307h-0.012
		c-0.042-0.715-0.503-1.322-1.228-1.322h-3.806c-0.702,0-1.107,0.547-1.107,1.43v9.199l-8.289-8.291
		c-0.257-0.25-0.598-0.381-0.988-0.381c-0.344,0-0.702,0.105-0.893,0.262c-0.641,0.578-1.128,1.02-2.439,2.264
		c-0.394,0.354-0.622,1.268-0.083,1.939l0.013,0.016l0.015,0.014l13.272,13.271c0.772,0.775,1.664,1.203,2.51,1.203
		c0.471,0,0.922-0.135,1.306-0.387c0.461-0.201,0.911-0.518,1.339-0.941l12.769-12.771
		C188.931,49.196,189.032,48.417,188.562,47.772z"/>
</g>
</svg>
