<?xml version="1.0" encoding="utf-8"?>
<!-- Generator: Adobe Illustrator 15.1.0, SVG Export Plug-In . SVG Version: 6.00 Build 0)  -->
<!DOCTYPE svg PUBLIC "-//W3C//DTD SVG 1.1//EN" "http://www.w3.org/Graphics/SVG/1.1/DTD/svg11.dtd">
<svg version="1.1"
	 id="Layer_1" xmlns:rdf="http://www.w3.org/1999/02/22-rdf-syntax-ns#" xmlns:dc="http://purl.org/dc/elements/1.1/" xmlns:cc="http://creativecommons.org/ns#"
	 xmlns="http://www.w3.org/2000/svg" xmlns:xlink="http://www.w3.org/1999/xlink" x="0px" y="0px" width="170.117px"
	 height="145.804px" viewBox="4.996 5 170.117 145.804" enable-background="new 4.996 5 170.117 145.804" xml:space="preserve">
<g transform="translate(-166.32586,-222.11295)">
	<path fill="#A41E11" d="M334.771,339.541c-9.078,4.731-56.106,24.068-66.119,29.287c-10.012,5.222-15.574,5.17-23.483,1.39
		c-7.909-3.781-57.956-23.996-66.971-28.306c-4.506-2.153-6.875-3.972-6.875-5.688v-17.195c0,0,65.153-14.184,75.672-17.957
		c10.518-3.773,14.167-3.91,23.118-0.63c8.952,3.279,62.475,12.936,71.322,16.175c0,0-0.004,15.357-0.004,16.951
		C341.433,335.269,339.392,337.133,334.771,339.541L334.771,339.541z"/>
	<path fill="#D82C20" d="M334.771,322.341c-9.078,4.73-56.106,24.068-66.119,29.287c-10.012,5.221-15.574,5.17-23.483,1.389
		c-7.91-3.778-57.956-23.998-66.971-28.305c-9.015-4.309-9.204-7.275-0.348-10.742c8.855-3.469,58.626-22.996,69.146-26.77
		c10.518-3.772,14.167-3.91,23.118-0.63c8.952,3.279,55.7,21.886,64.545,25.126C343.509,314.939,343.849,317.609,334.771,322.341
		L334.771,322.341z"/>
	<path fill="#A41E11" d="M334.771,311.501c-9.078,4.732-56.106,24.068-66.119,29.289c-10.012,5.219-15.574,5.168-23.483,1.387
		c-7.91-3.779-57.956-23.996-66.971-28.305c-4.506-2.154-6.875-3.969-6.875-5.686v-17.198c0,0,65.153-14.183,75.672-17.957
		c10.518-3.773,14.167-3.91,23.118-0.631c8.952,3.279,62.475,12.934,71.322,16.175c0,0-0.004,15.357-0.004,16.953
		C341.433,307.228,339.392,309.093,334.771,311.501z"/>
	<path fill="#D82C20" d="M334.771,294.301c-9.078,4.732-56.106,24.067-66.119,29.289c-10.012,5.22-15.574,5.168-23.483,1.388
		c-7.91-3.779-57.956-23.998-66.971-28.306c-9.015-4.308-9.204-7.274-0.348-10.743c8.855-3.467,58.626-22.995,69.146-26.768
		c10.518-3.773,14.167-3.91,23.118-0.631c8.952,3.279,55.7,21.885,64.545,25.126C343.509,286.898,343.849,289.569,334.771,294.301
		L334.771,294.301z"/>
	<path fill="#A41E11" d="M334.771,282.421c-9.078,4.732-56.106,24.068-66.119,29.29c-10.012,5.219-15.574,5.168-23.483,1.387
		c-7.91-3.778-57.956-23.997-66.971-28.305c-4.506-2.154-6.875-3.97-6.875-5.686V261.91c0,0,65.153-14.183,75.672-17.956
		c10.518-3.774,14.167-3.91,23.118-0.631c8.952,3.279,62.475,12.934,71.322,16.175c0,0-0.004,15.357-0.004,16.952
		C341.433,278.148,339.392,280.013,334.771,282.421L334.771,282.421z"/>
	<path fill="#D82C20" d="M334.771,265.221c-9.078,4.732-56.106,24.069-66.119,29.289c-10.012,5.219-15.574,5.168-23.483,1.388
		c-7.909-3.78-57.956-23.998-66.971-28.305c-9.015-4.308-9.204-7.275-0.348-10.743c8.855-3.468,58.626-22.994,69.146-26.768
		c10.518-3.774,14.167-3.91,23.118-0.63c8.952,3.279,55.7,21.885,64.545,25.126C343.509,257.818,343.849,260.49,334.771,265.221
		L334.771,265.221z"/>
	<polygon fill="#FFFFFF" points="278.671,248.661 263.93,250.191 260.631,258.131 255.3,249.271 238.28,247.741 250.981,243.161 
		247.171,236.131 259.061,240.78 270.271,237.111 267.24,244.381 	"/>
	<polygon fill="#FFFFFF" points="259.751,287.181 232.24,275.771 271.661,269.721 	"/>
	<ellipse fill="#FFFFFF" cx="221.611" cy="261.241" rx="21.069" ry="8.167"/>
	<polygon fill="#7A0C00" points="296.091,250.831 319.421,260.05 296.111,269.261 	"/>
	<polygon fill="#AD2115" points="270.28,261.041 296.091,250.831 296.111,269.261 293.581,270.251 	"/>
</g>
</svg>
